<svg xmlns="http://www.w3.org/2000/svg" xmlns:xlink="http://www.w3.org/1999/xlink" id="processonSvg1000" viewBox="68.0 8.875 1076.0 908.125" width="1076.0" height="908.125"><defs id="ProcessOnDefs1001"><marker id="ProcessOnMarker1028" markerUnits="userSpaceOnUse" orient="auto" markerWidth="16.23606797749979" markerHeight="10.550836550532098" viewBox="-1.0 -1.3763819204711736 16.23606797749979 10.550836550532098" refX="-1.0" refY="3.8990363547948754"><path id="ProcessOnPath1029" d="M12.0 3.8990363547948754L0.0 7.798072709589751V0.0Z" stroke="#323232" stroke-width="2.0" fill="#323232" transform="matrix(1.0,0.0,0.0,1.0,0.0,0.0)"/></marker><marker id="ProcessOnMarker1032" markerUnits="userSpaceOnUse" orient="auto" markerWidth="16.23606797749979" markerHeight="10.550836550532098" viewBox="-1.0 -1.3763819204711736 16.23606797749979 10.550836550532098" refX="-1.0" refY="3.8990363547948754"><path id="ProcessOnPath1033" d="M12.0 3.8990363547948754L0.0 7.798072709589751V0.0Z" stroke="#323232" stroke-width="2.0" fill="#323232" transform="matrix(1.0,0.0,0.0,1.0,0.0,0.0)"/></marker><marker id="ProcessOnMarker1036" markerUnits="userSpaceOnUse" orient="auto" markerWidth="16.23606797749979" markerHeight="10.550836550532098" viewBox="-1.0 -1.3763819204711736 16.23606797749979 10.550836550532098" refX="-1.0" refY="3.8990363547948754"><path id="ProcessOnPath1037" d="M12.0 3.8990363547948754L0.0 7.798072709589751V0.0Z" stroke="#323232" stroke-width="2.0" fill="#323232" transform="matrix(1.0,0.0,0.0,1.0,0.0,0.0)"/></marker><marker id="ProcessOnMarker1052" markerUnits="userSpaceOnUse" orient="auto" markerWidth="16.23606797749979" markerHeight="10.550836550532098" viewBox="-1.0 -1.3763819204711736 16.23606797749979 10.550836550532098" refX="-1.0" refY="3.8990363547948754"><path id="ProcessOnPath1053" d="M12.0 3.8990363547948754L0.0 7.798072709589751V0.0Z" stroke="#323232" stroke-width="2.0" fill="#323232" transform="matrix(1.0,0.0,0.0,1.0,0.0,0.0)"/></marker><marker id="ProcessOnMarker1059" markerUnits="userSpaceOnUse" orient="auto" markerWidth="16.23606797749979" markerHeight="10.550836550532098" viewBox="-1.0 -1.3763819204711736 16.23606797749979 10.550836550532098" refX="-1.0" refY="3.8990363547948754"><path id="ProcessOnPath1060" d="M12.0 3.8990363547948754L0.0 7.798072709589751V0.0Z" stroke="#323232" stroke-width="2.0" fill="#323232" transform="matrix(1.0,0.0,0.0,1.0,0.0,0.0)"/></marker><marker id="ProcessOnMarker1066" markerUnits="userSpaceOnUse" orient="auto" markerWidth="16.23606797749979" markerHeight="10.550836550532098" viewBox="-1.0 -1.3763819204711736 16.23606797749979 10.550836550532098" refX="-1.0" refY="3.8990363547948754"><path id="ProcessOnPath1067" d="M12.0 3.8990363547948754L0.0 7.798072709589751V0.0Z" stroke="#323232" stroke-width="2.0" fill="#323232" transform="matrix(1.0,0.0,0.0,1.0,0.0,0.0)"/></marker><marker id="ProcessOnMarker1073" markerUnits="userSpaceOnUse" orient="auto" markerWidth="16.23606797749979" markerHeight="10.550836550532098" viewBox="-1.0 -1.3763819204711736 16.23606797749979 10.550836550532098" refX="-1.0" refY="3.8990363547948754"><path id="ProcessOnPath1074" d="M12.0 3.8990363547948754L0.0 7.798072709589751V0.0Z" stroke="#323232" stroke-width="2.0" fill="#323232" transform="matrix(1.0,0.0,0.0,1.0,0.0,0.0)"/></marker><marker id="ProcessOnMarker1080" markerUnits="userSpaceOnUse" orient="auto" markerWidth="16.23606797749979" markerHeight="10.550836550532098" viewBox="-1.0 -1.3763819204711736 16.23606797749979 10.550836550532098" refX="-1.0" refY="3.8990363547948754"><path id="ProcessOnPath1081" d="M12.0 3.8990363547948754L0.0 7.798072709589751V0.0Z" stroke="#323232" stroke-width="2.0" fill="#323232" transform="matrix(1.0,0.0,0.0,1.0,0.0,0.0)"/></marker><marker id="ProcessOnMarker1084" markerUnits="userSpaceOnUse" orient="auto" markerWidth="16.23606797749979" markerHeight="10.550836550532098" viewBox="-1.0 -1.3763819204711736 16.23606797749979 10.550836550532098" refX="-1.0" refY="3.8990363547948754"><path id="ProcessOnPath1085" d="M12.0 3.8990363547948754L0.0 7.798072709589751V0.0Z" stroke="#323232" stroke-width="2.0" fill="#323232" transform="matrix(1.0,0.0,0.0,1.0,0.0,0.0)"/></marker><marker id="ProcessOnMarker1091" markerUnits="userSpaceOnUse" orient="auto" markerWidth="16.23606797749979" markerHeight="10.550836550532098" viewBox="-1.0 -1.3763819204711736 16.23606797749979 10.550836550532098" refX="-1.0" refY="3.8990363547948754"><path id="ProcessOnPath1092" d="M12.0 3.8990363547948754L0.0 7.798072709589751V0.0Z" stroke="#323232" stroke-width="2.0" fill="#323232" transform="matrix(1.0,0.0,0.0,1.0,0.0,0.0)"/></marker><marker id="ProcessOnMarker1104" markerUnits="userSpaceOnUse" orient="auto" markerWidth="16.23606797749979" markerHeight="10.550836550532098" viewBox="-1.0 -1.3763819204711736 16.23606797749979 10.550836550532098" refX="-1.0" refY="3.8990363547948754"><path id="ProcessOnPath1105" d="M12.0 3.8990363547948754L0.0 7.798072709589751V0.0Z" stroke="#323232" stroke-width="2.0" fill="#323232" transform="matrix(1.0,0.0,0.0,1.0,0.0,0.0)"/></marker><marker id="ProcessOnMarker1108" markerUnits="userSpaceOnUse" orient="auto" markerWidth="16.23606797749979" markerHeight="10.550836550532098" viewBox="-1.0 -1.3763819204711736 16.23606797749979 10.550836550532098" refX="-1.0" refY="3.8990363547948754"><path id="ProcessOnPath1109" d="M12.0 3.8990363547948754L0.0 7.798072709589751V0.0Z" stroke="#323232" stroke-width="2.0" fill="#323232" transform="matrix(1.0,0.0,0.0,1.0,0.0,0.0)"/></marker><marker id="ProcessOnMarker1112" markerUnits="userSpaceOnUse" orient="auto" markerWidth="16.23606797749979" markerHeight="10.550836550532098" viewBox="-1.0 -1.3763819204711736 16.23606797749979 10.550836550532098" refX="-1.0" refY="3.8990363547948754"><path id="ProcessOnPath1113" d="M12.0 3.8990363547948754L0.0 7.798072709589751V0.0Z" stroke="#323232" stroke-width="2.0" fill="#323232" transform="matrix(1.0,0.0,0.0,1.0,0.0,0.0)"/></marker><marker id="ProcessOnMarker1119" markerUnits="userSpaceOnUse" orient="auto" markerWidth="16.23606797749979" markerHeight="10.550836550532098" viewBox="-1.0 -1.3763819204711736 16.23606797749979 10.550836550532098" refX="-1.0" refY="3.8990363547948754"><path id="ProcessOnPath1120" d="M12.0 3.8990363547948754L0.0 7.798072709589751V0.0Z" stroke="#323232" stroke-width="2.0" fill="#323232" transform="matrix(1.0,0.0,0.0,1.0,0.0,0.0)"/></marker></defs><g id="ProcessOnG1002"><path id="ProcessOnPath1003" d="M68.0 8.875H1144.0V917.0H68.0V8.875Z" fill="none"/><g id="ProcessOnG1004"><g id="ProcessOnG1005" transform="matrix(1.0,0.0,0.0,1.0,406.0,234.0)" opacity="1.0"><path id="ProcessOnPath1006" d="M0.0 30.0L240.0 30.0L240.0 270.0L0.0 270.0L0.0 30.0Z" stroke="#323232" stroke-width="2.0" stroke-dasharray="none" opacity="1.0" fill="#ffffff"/><path id="ProcessOnPath1007" d="M0.0 30.0L30.0 0.0L270.0 0.0L270.0 240.0L240.0 270.0L240.0 30.0L0.0 30.0ZM240.0 30.0L270.0 0.0" stroke="#323232" stroke-width="2.0" stroke-dasharray="none" opacity="1.0" fill="#e6e6e6"/><path id="ProcessOnPath1008" d="M0.0 0.0L270.0 0.0L270.0 270.0L0.0 270.0Z" stroke="none" stroke-width="0.0" stroke-dasharray="none" opacity="1.0" fill="none"/><g id="ProcessOnG1009" transform="matrix(1.0,0.0,0.0,1.0,10.0,141.875)"><text id="ProcessOnText1010" fill="#000000" font-size="13" x="109.0" y="13.325" font-family="微软雅黑" font-weight="normal" font-style="normal" text-decoration="underline" family="微软雅黑" text-anchor="middle" size="13">主界面UI</text></g></g><g id="ProcessOnG1011" transform="matrix(1.0,0.0,0.0,1.0,108.0,319.0)" opacity="1.0"><path id="ProcessOnPath1012" d="M23.333333333333332 12.5C23.333333333333332 -4.166666666666666 46.666666666666664 -4.166666666666666 46.666666666666664 12.5C46.666666666666664 29.166666666666668 23.333333333333332 29.166666666666668 23.333333333333332 12.5M35.0 25.0L35.0 75.0M35.0 75.0L5.833333333333333 100.0M35.0 75.0L64.16666666666666 100.0M0.0 50.0L70.0 50.0" stroke="#323232" stroke-width="2.0" stroke-dasharray="none" opacity="1.0" fill="#ffffff"/><path id="ProcessOnPath1013" d="M0.0 0.0L70.0 0.0L70.0 100.0L0.0 100.0Z" stroke="none" stroke-width="0.0" stroke-dasharray="none" opacity="1.0" fill="none"/><g id="ProcessOnG1014" transform="matrix(1.0,0.0,0.0,1.0,-20.0,106.875)"><text id="ProcessOnText1015" fill="#000000" font-size="13" x="54.0" y="13.325" font-family="微软雅黑" font-weight="normal" font-style="normal" text-decoration="none" family="微软雅黑" text-anchor="middle" size="13">普通管理员</text></g></g><g id="ProcessOnG1016" transform="matrix(1.0,0.0,0.0,1.0,259.0,67.0)" opacity="1.0"><path id="ProcessOnPath1017" d="M23.333333333333332 12.5C23.333333333333332 -4.166666666666666 46.666666666666664 -4.166666666666666 46.666666666666664 12.5C46.666666666666664 29.166666666666668 23.333333333333332 29.166666666666668 23.333333333333332 12.5M35.0 25.0L35.0 75.0M35.0 75.0L5.833333333333333 100.0M35.0 75.0L64.16666666666666 100.0M0.0 50.0L70.0 50.0" stroke="#323232" stroke-width="2.0" stroke-dasharray="none" opacity="1.0" fill="#ffffff"/><path id="ProcessOnPath1018" d="M0.0 0.0L70.0 0.0L70.0 100.0L0.0 100.0Z" stroke="none" stroke-width="0.0" stroke-dasharray="none" opacity="1.0" fill="none"/><g id="ProcessOnG1019" transform="matrix(1.0,0.0,0.0,1.0,-20.0,106.875)"><text id="ProcessOnText1020" fill="#000000" font-size="13" x="54.0" y="13.325" font-family="微软雅黑" font-weight="normal" font-style="normal" text-decoration="none" family="微软雅黑" text-anchor="middle" size="13">超级管理员</text></g></g><g id="ProcessOnG1021" transform="matrix(1.0,0.0,0.0,1.0,275.0,585.0)" opacity="1.0"><path id="ProcessOnPath1022" d="M23.333333333333332 12.5C23.333333333333332 -4.166666666666666 46.666666666666664 -4.166666666666666 46.666666666666664 12.5C46.666666666666664 29.166666666666668 23.333333333333332 29.166666666666668 23.333333333333332 12.5M35.0 25.0L35.0 75.0M35.0 75.0L5.833333333333333 100.0M35.0 75.0L64.16666666666666 100.0M0.0 50.0L70.0 50.0" stroke="#323232" stroke-width="2.0" stroke-dasharray="none" opacity="1.0" fill="#ffffff"/><path id="ProcessOnPath1023" d="M0.0 0.0L70.0 0.0L70.0 100.0L0.0 100.0Z" stroke="none" stroke-width="0.0" stroke-dasharray="none" opacity="1.0" fill="none"/><g id="ProcessOnG1024" transform="matrix(1.0,0.0,0.0,1.0,-20.0,106.875)"><text id="ProcessOnText1025" fill="#000000" font-size="13" x="54.0" y="13.325" font-family="微软雅黑" font-weight="normal" font-style="normal" text-decoration="none" family="微软雅黑" text-anchor="middle" size="13">游客</text></g></g><g id="ProcessOnG1026"><path id="ProcessOnPath1027" d="M329.0 117.0L541.0 117.0L541.0 218.7639320225002" stroke="#323232" stroke-width="2.0" stroke-dasharray="none" fill="none" marker-end="url(#ProcessOnMarker1028)"/></g><g id="ProcessOnG1030"><path id="ProcessOnPath1031" d="M178.0 369.0L292.0 369.0L292.0 369.0L390.7639320225002 369.0" stroke="#323232" stroke-width="2.0" stroke-dasharray="none" fill="none" marker-end="url(#ProcessOnMarker1032)"/></g><g id="ProcessOnG1034"><path id="ProcessOnPath1035" d="M345.0 635.0L541.0 635.0L541.0 519.2360679774998" stroke="#323232" stroke-width="2.0" stroke-dasharray="none" fill="none" marker-end="url(#ProcessOnMarker1036)"/></g><g id="ProcessOnG1038" transform="matrix(1.0,0.0,0.0,1.0,803.0,406.0)" opacity="1.0"><path id="ProcessOnPath1039" d="M10.0 0.0L100.0 0.0L100.0 70.0L10.0 70.0L10.0 56.0L0.0 56.0L0.0 42.0L10.0 42.0L10.0 28.0L0.0 28.0L0.0 14.0L10.0 14.0L10.0 0.0Z" stroke="#323232" stroke-width="2.0" stroke-dasharray="none" opacity="1.0" fill="#ffffff"/><path id="ProcessOnPath1040" d="M10.0 56.0L20.0 56.0L20.0 42.0L10.0 42.0M10.0 28.0L20.0 28.0L20.0 14.0L10.0 14.0" stroke="#323232" stroke-width="2.0" stroke-dasharray="none" opacity="1.0" fill="none"/><path id="ProcessOnPath1041" d="M10.0 0.0L100.0 0.0L100.0 70.0L10.0 70.0L10.0 56.0L0.0 56.0L0.0 42.0L10.0 42.0L10.0 28.0L0.0 28.0L0.0 14.0L10.0 14.0L10.0 0.0Z" stroke="none" stroke-width="0.0" stroke-dasharray="none" opacity="1.0" fill="none"/><g id="ProcessOnG1042" transform="matrix(1.0,0.0,0.0,1.0,17.5,26.875)"><text id="ProcessOnText1043" fill="#000000" font-size="13" x="37.75" y="13.325" font-family="微软雅黑" font-weight="normal" font-style="normal" text-decoration="underline" family="微软雅黑" text-anchor="middle" size="13">基础I/O</text></g></g><g id="ProcessOnG1044" transform="matrix(1.0,0.0,0.0,1.0,803.0,249.0)" opacity="1.0"><path id="ProcessOnPath1045" d="M10.0 0.0L100.0 0.0L100.0 70.0L10.0 70.0L10.0 56.0L0.0 56.0L0.0 42.0L10.0 42.0L10.0 28.0L0.0 28.0L0.0 14.0L10.0 14.0L10.0 0.0Z" stroke="#323232" stroke-width="2.0" stroke-dasharray="none" opacity="1.0" fill="#ffffff"/><path id="ProcessOnPath1046" d="M10.0 56.0L20.0 56.0L20.0 42.0L10.0 42.0M10.0 28.0L20.0 28.0L20.0 14.0L10.0 14.0" stroke="#323232" stroke-width="2.0" stroke-dasharray="none" opacity="1.0" fill="none"/><path id="ProcessOnPath1047" d="M10.0 0.0L100.0 0.0L100.0 70.0L10.0 70.0L10.0 56.0L0.0 56.0L0.0 42.0L10.0 42.0L10.0 28.0L0.0 28.0L0.0 14.0L10.0 14.0L10.0 0.0Z" stroke="none" stroke-width="0.0" stroke-dasharray="none" opacity="1.0" fill="none"/><g id="ProcessOnG1048" transform="matrix(1.0,0.0,0.0,1.0,17.5,26.875)"><text id="ProcessOnText1049" fill="#000000" font-size="13" x="37.75" y="13.325" font-family="微软雅黑" font-weight="normal" font-style="normal" text-decoration="underline" family="微软雅黑" text-anchor="middle" size="13">文件系统</text></g></g><g id="ProcessOnG1050"><path id="ProcessOnPath1051" d="M541.0 234.0L541.0 117.0L344.2360679774998 117.0" stroke="#323232" stroke-width="2.0" stroke-dasharray="none" fill="none" marker-end="url(#ProcessOnMarker1052)"/><g id="ProcessOnG1054" transform="matrix(1.0,0.0,0.0,1.0,501.11803398874986,108.875)"><path id="ProcessOnPath1055" d="M0 0H78.0V16.25H0Z" fill="#fff" transform="matrix(1.0,0.0,0.0,1.0,-39.0,0.0)"/><text id="ProcessOnText1056" fill="#000000" font-size="13" x="0.0" y="13.325" font-family="微软雅黑" font-weight="normal" font-style="normal" text-decoration="none" family="微软雅黑" text-anchor="middle" size="13">输入输出结果</text></g></g><g id="ProcessOnG1057"><path id="ProcessOnPath1058" d="M406.0 369.0L292.0 369.0L292.0 369.0L193.2360679774998 369.0" stroke="#323232" stroke-width="2.0" stroke-dasharray="none" fill="none" marker-end="url(#ProcessOnMarker1059)"/><g id="ProcessOnG1061" transform="matrix(1.0,0.0,0.0,1.0,299.6180339887499,360.875)"><path id="ProcessOnPath1062" d="M0 0H78.0V16.25H0Z" fill="#fff" transform="matrix(1.0,0.0,0.0,1.0,-39.0,0.0)"/><text id="ProcessOnText1063" fill="#000000" font-size="13" x="0.0" y="13.325" font-family="微软雅黑" font-weight="normal" font-style="normal" text-decoration="none" family="微软雅黑" text-anchor="middle" size="13">输入输出结果</text></g></g><g id="ProcessOnG1064"><path id="ProcessOnPath1065" d="M541.0 504.0L541.0 635.0L360.2360679774998 635.0" stroke="#323232" stroke-width="2.0" stroke-dasharray="none" fill="none" marker-end="url(#ProcessOnMarker1066)"/><g id="ProcessOnG1068" transform="matrix(1.0,0.0,0.0,1.0,516.1180339887499,626.875)"><path id="ProcessOnPath1069" d="M0 0H39.0V16.25H0Z" fill="#fff" transform="matrix(1.0,0.0,0.0,1.0,-19.5,0.0)"/><text id="ProcessOnText1070" fill="#000000" font-size="13" x="0.0" y="13.325" font-family="微软雅黑" font-weight="normal" font-style="normal" text-decoration="none" family="微软雅黑" text-anchor="middle" size="13">仅可见</text></g></g><g id="ProcessOnG1071"><path id="ProcessOnPath1072" d="M676.0 369.0L739.5 369.0L739.5 298.0L787.7639320225002 298.0" stroke="#323232" stroke-width="2.0" stroke-dasharray="none" fill="none" marker-end="url(#ProcessOnMarker1073)"/><g id="ProcessOnG1075" transform="matrix(1.0,0.0,0.0,1.0,739.5,332.9930339887499)"><path id="ProcessOnPath1076" d="M0 0H58.0V16.25H0Z" fill="#fff" transform="matrix(1.0,0.0,0.0,1.0,-29.0,0.0)"/><text id="ProcessOnText1077" fill="#000000" font-size="13" x="0.0" y="13.325" font-family="微软雅黑" font-weight="normal" font-style="normal" text-decoration="none" family="微软雅黑" text-anchor="middle" size="13">写入/读取</text></g></g><g id="ProcessOnG1078"><path id="ProcessOnPath1079" d="M676.0 369.0L739.5 369.0L739.5 427.0L787.7639320225002 427.0" stroke="#323232" stroke-width="2.0" stroke-dasharray="none" fill="none" marker-end="url(#ProcessOnMarker1080)"/></g><g id="ProcessOnG1082"><path id="ProcessOnPath1083" d="M803.0 270.0L773.0 270.0L773.0 37.0L294.0 37.0L294.0 51.763932022500214" stroke="#323232" stroke-width="2.0" stroke-dasharray="none" fill="none" marker-end="url(#ProcessOnMarker1084)"/><g id="ProcessOnG1086" transform="matrix(1.0,0.0,0.0,1.0,657.6180339887499,28.875)"><path id="ProcessOnPath1087" d="M0 0H78.0V16.25H0Z" fill="#fff" transform="matrix(1.0,0.0,0.0,1.0,-39.0,0.0)"/><text id="ProcessOnText1088" fill="#000000" font-size="13" x="0.0" y="13.325" font-family="微软雅黑" font-weight="normal" font-style="normal" text-decoration="none" family="微软雅黑" text-anchor="middle" size="13">文件输出结果</text></g></g><g id="ProcessOnG1089"><path id="ProcessOnPath1090" d="M803.0 427.0L739.5 427.0L739.5 369.0L691.2360679774998 369.0" stroke="#323232" stroke-width="2.0" stroke-dasharray="none" fill="none" marker-end="url(#ProcessOnMarker1091)"/><g id="ProcessOnG1093" transform="matrix(1.0,0.0,0.0,1.0,739.5,397.4930339887499)"><path id="ProcessOnPath1094" d="M0 0H26.0V16.25H0Z" fill="#fff" transform="matrix(1.0,0.0,0.0,1.0,-13.0,0.0)"/><text id="ProcessOnText1095" fill="#000000" font-size="13" x="0.0" y="13.325" font-family="微软雅黑" font-weight="normal" font-style="normal" text-decoration="none" family="微软雅黑" text-anchor="middle" size="13">优化</text></g></g><g id="ProcessOnG1096" transform="matrix(1.0,0.0,0.0,1.0,854.0,627.0)" opacity="1.0"><path id="ProcessOnPath1097" d="M0.0 30.0L240.0 30.0L240.0 270.0L0.0 270.0L0.0 30.0Z" stroke="#323232" stroke-width="2.0" stroke-dasharray="none" opacity="1.0" fill="#ffffff"/><path id="ProcessOnPath1098" d="M0.0 30.0L30.0 0.0L270.0 0.0L270.0 240.0L240.0 270.0L240.0 30.0L0.0 30.0ZM240.0 30.0L270.0 0.0" stroke="#323232" stroke-width="2.0" stroke-dasharray="none" opacity="1.0" fill="#e6e6e6"/><path id="ProcessOnPath1099" d="M0.0 0.0L270.0 0.0L270.0 270.0L0.0 270.0Z" stroke="none" stroke-width="0.0" stroke-dasharray="none" opacity="1.0" fill="none"/><g id="ProcessOnG1100" transform="matrix(1.0,0.0,0.0,1.0,10.0,141.875)"><text id="ProcessOnText1101" fill="#000000" font-size="13" x="109.0" y="13.325" font-family="微软雅黑" font-weight="normal" font-style="normal" text-decoration="none" family="微软雅黑" text-anchor="middle" size="13">数据库</text></g></g><g id="ProcessOnG1102"><path id="ProcessOnPath1103" d="M903.0 284.0L989.0 284.0L989.0 611.7639320225002" stroke="#323232" stroke-width="2.0" stroke-dasharray="none" fill="none" marker-end="url(#ProcessOnMarker1104)"/></g><g id="ProcessOnG1106"><path id="ProcessOnPath1107" d="M903.0 441.0L989.0 441.0L989.0 611.7639320225002" stroke="#323232" stroke-width="2.0" stroke-dasharray="none" fill="none" marker-end="url(#ProcessOnMarker1108)"/></g><g id="ProcessOnG1110"><path id="ProcessOnPath1111" d="M989.0 627.0L989.0 441.0L918.2360679774998 441.0" stroke="#323232" stroke-width="2.0" stroke-dasharray="none" fill="none" marker-end="url(#ProcessOnMarker1112)"/><g id="ProcessOnG1114" transform="matrix(1.0,0.0,0.0,1.0,989.0,490.4930339887499)"><path id="ProcessOnPath1115" d="M0 0H78.0V16.25H0Z" fill="#fff" transform="matrix(1.0,0.0,0.0,1.0,-39.0,0.0)"/><text id="ProcessOnText1116" fill="#000000" font-size="13" x="0.0" y="13.325" font-family="微软雅黑" font-weight="normal" font-style="normal" text-decoration="none" family="微软雅黑" text-anchor="middle" size="13">底层数据访问</text></g></g><g id="ProcessOnG1117"><path id="ProcessOnPath1118" d="M989.0 627.0L989.0 284.0L918.2360679774998 284.0" stroke="#323232" stroke-width="2.0" stroke-dasharray="none" fill="none" marker-end="url(#ProcessOnMarker1119)"/></g></g></g></svg>