<svg xmlns="http://www.w3.org/2000/svg" xmlns:xlink="http://www.w3.org/1999/xlink" id="processonSvg1000" viewBox="7.0 206.0 1118.0 1290.0" width="1118.0" height="1290.0"><defs id="ProcessOnDefs1001"><marker id="ProcessOnMarker1082" markerUnits="userSpaceOnUse" orient="auto" markerWidth="16.23606797749979" markerHeight="10.550836550532098" viewBox="-1.0 -1.3763819204711736 16.23606797749979 10.550836550532098" refX="-1.0" refY="3.8990363547948754"><path id="ProcessOnPath1083" d="M12.0 3.8990363547948754L0.0 7.798072709589751V0.0Z" stroke="#323232" stroke-width="2.0" fill="#323232" transform="matrix(1.0,0.0,0.0,1.0,0.0,0.0)"/></marker><marker id="ProcessOnMarker1086" markerUnits="userSpaceOnUse" orient="auto" markerWidth="16.23606797749979" markerHeight="10.550836550532098" viewBox="-1.0 -1.3763819204711736 16.23606797749979 10.550836550532098" refX="-1.0" refY="3.8990363547948754"><path id="ProcessOnPath1087" d="M12.0 3.8990363547948754L0.0 7.798072709589751V0.0Z" stroke="#323232" stroke-width="2.0" fill="#323232" transform="matrix(1.0,0.0,0.0,1.0,0.0,0.0)"/></marker><marker id="ProcessOnMarker1090" markerUnits="userSpaceOnUse" orient="auto" markerWidth="16.23606797749979" markerHeight="10.550836550532098" viewBox="-1.0 -1.3763819204711736 16.23606797749979 10.550836550532098" refX="-1.0" refY="3.8990363547948754"><path id="ProcessOnPath1091" d="M12.0 3.8990363547948754L0.0 7.798072709589751V0.0Z" stroke="#323232" stroke-width="2.0" fill="#323232" transform="matrix(1.0,0.0,0.0,1.0,0.0,0.0)"/></marker><marker id="ProcessOnMarker1094" markerUnits="userSpaceOnUse" orient="auto" markerWidth="16.23606797749979" markerHeight="10.550836550532098" viewBox="-1.0 -1.3763819204711736 16.23606797749979 10.550836550532098" refX="-1.0" refY="3.8990363547948754"><path id="ProcessOnPath1095" d="M12.0 3.8990363547948754L0.0 7.798072709589751V0.0Z" stroke="#323232" stroke-width="2.0" fill="#323232" transform="matrix(1.0,0.0,0.0,1.0,0.0,0.0)"/></marker><marker id="ProcessOnMarker1098" markerUnits="userSpaceOnUse" orient="auto" markerWidth="16.23606797749979" markerHeight="10.550836550532098" viewBox="-1.0 -1.3763819204711736 16.23606797749979 10.550836550532098" refX="-1.0" refY="3.8990363547948754"><path id="ProcessOnPath1099" d="M12.0 3.8990363547948754L0.0 7.798072709589751V0.0Z" stroke="#323232" stroke-width="2.0" fill="#323232" transform="matrix(1.0,0.0,0.0,1.0,0.0,0.0)"/></marker><marker id="ProcessOnMarker1115" markerUnits="userSpaceOnUse" orient="auto" markerWidth="16.23606797749979" markerHeight="10.550836550532098" viewBox="-1.0 -1.3763819204711736 16.23606797749979 10.550836550532098" refX="-1.0" refY="3.8990363547948754"><path id="ProcessOnPath1116" d="M12.0 3.8990363547948754L0.0 7.798072709589751V0.0Z" stroke="#323232" stroke-width="2.0" fill="#323232" transform="matrix(1.0,0.0,0.0,1.0,0.0,0.0)"/></marker><marker id="ProcessOnMarker1119" markerUnits="userSpaceOnUse" orient="auto" markerWidth="16.23606797749979" markerHeight="10.550836550532098" viewBox="-1.0 -1.3763819204711736 16.23606797749979 10.550836550532098" refX="-1.0" refY="3.8990363547948754"><path id="ProcessOnPath1120" d="M12.0 3.8990363547948754L0.0 7.798072709589751V0.0Z" stroke="#323232" stroke-width="2.0" fill="#323232" transform="matrix(1.0,0.0,0.0,1.0,0.0,0.0)"/></marker><marker id="ProcessOnMarker1123" markerUnits="userSpaceOnUse" orient="auto" markerWidth="16.23606797749979" markerHeight="10.550836550532098" viewBox="-1.0 -1.3763819204711736 16.23606797749979 10.550836550532098" refX="-1.0" refY="3.8990363547948754"><path id="ProcessOnPath1124" d="M12.0 3.8990363547948754L0.0 7.798072709589751V0.0Z" stroke="#323232" stroke-width="2.0" fill="#323232" transform="matrix(1.0,0.0,0.0,1.0,0.0,0.0)"/></marker><marker id="ProcessOnMarker1127" markerUnits="userSpaceOnUse" orient="auto" markerWidth="16.23606797749979" markerHeight="10.550836550532098" viewBox="-1.0 -1.3763819204711736 16.23606797749979 10.550836550532098" refX="-1.0" refY="3.8990363547948754"><path id="ProcessOnPath1128" d="M12.0 3.8990363547948754L0.0 7.798072709589751V0.0Z" stroke="#323232" stroke-width="2.0" fill="#323232" transform="matrix(1.0,0.0,0.0,1.0,0.0,0.0)"/></marker><marker id="ProcessOnMarker1131" markerUnits="userSpaceOnUse" orient="auto" markerWidth="16.23606797749979" markerHeight="10.550836550532098" viewBox="-1.0 -1.3763819204711736 16.23606797749979 10.550836550532098" refX="-1.0" refY="3.8990363547948754"><path id="ProcessOnPath1132" d="M12.0 3.8990363547948754L0.0 7.798072709589751V0.0Z" stroke="#323232" stroke-width="2.0" fill="#323232" transform="matrix(1.0,0.0,0.0,1.0,0.0,0.0)"/></marker><marker id="ProcessOnMarker1135" markerUnits="userSpaceOnUse" orient="auto" markerWidth="16.23606797749979" markerHeight="10.550836550532098" viewBox="-1.0 -1.3763819204711736 16.23606797749979 10.550836550532098" refX="-1.0" refY="3.8990363547948754"><path id="ProcessOnPath1136" d="M12.0 3.8990363547948754L0.0 7.798072709589751V0.0Z" stroke="#323232" stroke-width="2.0" fill="#323232" transform="matrix(1.0,0.0,0.0,1.0,0.0,0.0)"/></marker><marker id="ProcessOnMarker1139" markerUnits="userSpaceOnUse" orient="auto" markerWidth="16.23606797749979" markerHeight="10.550836550532098" viewBox="-1.0 -1.3763819204711736 16.23606797749979 10.550836550532098" refX="-1.0" refY="3.8990363547948754"><path id="ProcessOnPath1140" d="M12.0 3.8990363547948754L0.0 7.798072709589751V0.0Z" stroke="#323232" stroke-width="2.0" fill="#323232" transform="matrix(1.0,0.0,0.0,1.0,0.0,0.0)"/></marker><marker id="ProcessOnMarker1143" markerUnits="userSpaceOnUse" orient="auto" markerWidth="16.23606797749979" markerHeight="10.550836550532098" viewBox="-1.0 -1.3763819204711736 16.23606797749979 10.550836550532098" refX="-1.0" refY="3.8990363547948754"><path id="ProcessOnPath1144" d="M12.0 3.8990363547948754L0.0 7.798072709589751V0.0Z" stroke="#323232" stroke-width="2.0" fill="#323232" transform="matrix(1.0,0.0,0.0,1.0,0.0,0.0)"/></marker><marker id="ProcessOnMarker1153" markerUnits="userSpaceOnUse" orient="auto" markerWidth="16.23606797749979" markerHeight="10.550836550532098" viewBox="-1.0 -1.3763819204711736 16.23606797749979 10.550836550532098" refX="-1.0" refY="3.8990363547948754"><path id="ProcessOnPath1154" d="M12.0 3.8990363547948754L0.0 7.798072709589751V0.0Z" stroke="#323232" stroke-width="2.0" fill="#323232" transform="matrix(1.0,0.0,0.0,1.0,0.0,0.0)"/></marker><marker id="ProcessOnMarker1157" markerUnits="userSpaceOnUse" orient="auto" markerWidth="16.23606797749979" markerHeight="10.550836550532098" viewBox="-1.0 -1.3763819204711736 16.23606797749979 10.550836550532098" refX="-1.0" refY="3.8990363547948754"><path id="ProcessOnPath1158" d="M12.0 3.8990363547948754L0.0 7.798072709589751V0.0Z" stroke="#323232" stroke-width="2.0" fill="#323232" transform="matrix(1.0,0.0,0.0,1.0,0.0,0.0)"/></marker><marker id="ProcessOnMarker1161" markerUnits="userSpaceOnUse" orient="auto" markerWidth="16.23606797749979" markerHeight="10.550836550532098" viewBox="-1.0 -1.3763819204711736 16.23606797749979 10.550836550532098" refX="-1.0" refY="3.8990363547948754"><path id="ProcessOnPath1162" d="M12.0 3.8990363547948754L0.0 7.798072709589751V0.0Z" stroke="#323232" stroke-width="2.0" fill="#323232" transform="matrix(1.0,0.0,0.0,1.0,0.0,0.0)"/></marker><marker id="ProcessOnMarker1171" markerUnits="userSpaceOnUse" orient="auto" markerWidth="16.23606797749979" markerHeight="10.550836550532098" viewBox="-1.0 -1.3763819204711736 16.23606797749979 10.550836550532098" refX="-1.0" refY="3.8990363547948754"><path id="ProcessOnPath1172" d="M12.0 3.8990363547948754L0.0 7.798072709589751V0.0Z" stroke="#323232" stroke-width="2.0" fill="#323232" transform="matrix(1.0,0.0,0.0,1.0,0.0,0.0)"/></marker><marker id="ProcessOnMarker1175" markerUnits="userSpaceOnUse" orient="auto" markerWidth="16.23606797749979" markerHeight="10.550836550532098" viewBox="-1.0 -1.3763819204711736 16.23606797749979 10.550836550532098" refX="-1.0" refY="3.8990363547948754"><path id="ProcessOnPath1176" d="M12.0 3.8990363547948754L0.0 7.798072709589751V0.0Z" stroke="#323232" stroke-width="2.0" fill="#323232" transform="matrix(1.0,0.0,0.0,1.0,0.0,0.0)"/></marker><marker id="ProcessOnMarker1185" markerUnits="userSpaceOnUse" orient="auto" markerWidth="16.23606797749979" markerHeight="10.550836550532098" viewBox="-1.0 -1.3763819204711736 16.23606797749979 10.550836550532098" refX="-1.0" refY="3.8990363547948754"><path id="ProcessOnPath1186" d="M12.0 3.8990363547948754L0.0 7.798072709589751V0.0Z" stroke="#323232" stroke-width="2.0" fill="#323232" transform="matrix(1.0,0.0,0.0,1.0,0.0,0.0)"/></marker><marker id="ProcessOnMarker1189" markerUnits="userSpaceOnUse" orient="auto" markerWidth="16.23606797749979" markerHeight="10.550836550532098" viewBox="-1.0 -1.3763819204711736 16.23606797749979 10.550836550532098" refX="-1.0" refY="3.8990363547948754"><path id="ProcessOnPath1190" d="M12.0 3.8990363547948754L0.0 7.798072709589751V0.0Z" stroke="#323232" stroke-width="2.0" fill="#323232" transform="matrix(1.0,0.0,0.0,1.0,0.0,0.0)"/></marker><marker id="ProcessOnMarker1206" markerUnits="userSpaceOnUse" orient="auto" markerWidth="16.23606797749979" markerHeight="10.550836550532098" viewBox="-1.0 -1.3763819204711736 16.23606797749979 10.550836550532098" refX="-1.0" refY="3.8990363547948754"><path id="ProcessOnPath1207" d="M12.0 3.8990363547948754L0.0 7.798072709589751V0.0Z" stroke="#323232" stroke-width="2.0" fill="#323232" transform="matrix(1.0,0.0,0.0,1.0,0.0,0.0)"/></marker><marker id="ProcessOnMarker1210" markerUnits="userSpaceOnUse" orient="auto" markerWidth="16.23606797749979" markerHeight="10.550836550532098" viewBox="-1.0 -1.3763819204711736 16.23606797749979 10.550836550532098" refX="-1.0" refY="3.8990363547948754"><path id="ProcessOnPath1211" d="M12.0 3.8990363547948754L0.0 7.798072709589751V0.0Z" stroke="#323232" stroke-width="2.0" fill="#323232" transform="matrix(1.0,0.0,0.0,1.0,0.0,0.0)"/></marker><marker id="ProcessOnMarker1214" markerUnits="userSpaceOnUse" orient="auto" markerWidth="16.23606797749979" markerHeight="10.550836550532098" viewBox="-1.0 -1.3763819204711736 16.23606797749979 10.550836550532098" refX="-1.0" refY="3.8990363547948754"><path id="ProcessOnPath1215" d="M12.0 3.8990363547948754L0.0 7.798072709589751V0.0Z" stroke="#323232" stroke-width="2.0" fill="#323232" transform="matrix(1.0,0.0,0.0,1.0,0.0,0.0)"/></marker><marker id="ProcessOnMarker1218" markerUnits="userSpaceOnUse" orient="auto" markerWidth="16.23606797749979" markerHeight="10.550836550532098" viewBox="-1.0 -1.3763819204711736 16.23606797749979 10.550836550532098" refX="-1.0" refY="3.8990363547948754"><path id="ProcessOnPath1219" d="M12.0 3.8990363547948754L0.0 7.798072709589751V0.0Z" stroke="#323232" stroke-width="2.0" fill="#323232" transform="matrix(1.0,0.0,0.0,1.0,0.0,0.0)"/></marker></defs><g id="ProcessOnG1002"><path id="ProcessOnPath1003" d="M7.0 206.0H1125.0V1496.0H7.0V206.0Z" fill="none"/><g id="ProcessOnG1004"><g id="ProcessOnG1005" transform="matrix(1.0,0.0,0.0,1.0,321.0,938.0)" opacity="1.0"><path id="ProcessOnPath1006" d="M0.0 4.0Q0.0 0.0 4.0 0.0L245.0 0.0Q249.0 0.0 249.0 4.0L249.0 504.0Q249.0 508.0 245.0 508.0L4.0 508.0Q0.0 508.0 0.0 504.0Z" stroke="#323232" stroke-width="2.0" stroke-dasharray="none" opacity="1.0" fill="#ffffff"/><path id="ProcessOnPath1007" d="M0.0 30.0L249.0 30.0M0.0 110.0L249.0 110.0" stroke="#323232" stroke-width="2.0" stroke-dasharray="none" opacity="1.0" fill="none"/><path id="ProcessOnPath1008" d="M0.0 0.0L249.0 0.0L249.0 508.0L0.0 508.0Z" stroke="none" stroke-width="0.0" stroke-dasharray="none" opacity="1.0" fill="none"/><g id="ProcessOnG1009" transform="matrix(1.0,0.0,0.0,1.0,10.0,6.875)"><text id="ProcessOnText1010" fill="#000000" font-size="13" x="113.5" y="13.325" font-family="微软雅黑" font-weight="bold" font-style="normal" text-decoration="none" family="微软雅黑" text-anchor="middle" size="13">超市</text></g><g id="ProcessOnG1011" transform="matrix(1.0,0.0,0.0,1.0,10.0,29.375)"><text id="ProcessOnText1012" fill="#000000" font-size="13" x="113.5" y="13.325" font-family="微软雅黑" font-weight="bold" font-style="normal" text-decoration="none" family="微软雅黑" text-anchor="middle" size="13">    Ui::Supermarket *ui;</text><text id="ProcessOnText1013" fill="#000000" font-size="13" x="113.5" y="29.575" font-family="微软雅黑" font-weight="bold" font-style="normal" text-decoration="none" family="微软雅黑" text-anchor="middle" size="13">    Good *head;</text><text id="ProcessOnText1014" fill="#000000" font-size="13" x="113.5" y="45.825" font-family="微软雅黑" font-weight="bold" font-style="normal" text-decoration="none" family="微软雅黑" text-anchor="middle" size="13">    long number;</text><text id="ProcessOnText1015" fill="#000000" font-size="13" x="113.5" y="62.075" font-family="微软雅黑" font-weight="bold" font-style="normal" text-decoration="none" family="微软雅黑" text-anchor="middle" size="13">    QStandardItemModel *pmodel;</text><text id="ProcessOnText1016" fill="#000000" font-size="13" x="113.5" y="78.325" font-family="微软雅黑" font-weight="bold" font-style="normal" text-decoration="none" family="微软雅黑" text-anchor="middle" size="13">    string loginin_account;</text></g><g id="ProcessOnG1017" transform="matrix(1.0,0.0,0.0,1.0,10.0,107.125)"><text id="ProcessOnText1018" fill="#000000" font-size="13" x="113.5" y="13.325" font-family="微软雅黑" font-weight="bold" font-style="normal" text-decoration="none" family="微软雅黑" text-anchor="middle" size="13">explicit Supermarket(QWidget *pare</text><text id="ProcessOnText1019" fill="#000000" font-size="13" x="113.5" y="29.575" font-family="微软雅黑" font-weight="bold" font-style="normal" text-decoration="none" family="微软雅黑" text-anchor="middle" size="13">nt = 0);</text><text id="ProcessOnText1020" fill="#000000" font-size="13" x="113.5" y="45.825" font-family="微软雅黑" font-weight="bold" font-style="normal" text-decoration="none" family="微软雅黑" text-anchor="middle" size="13">    ~Supermarket();</text><text id="ProcessOnText1021" fill="#000000" font-size="13" x="113.5" y="62.075" font-family="微软雅黑" font-weight="bold" font-style="normal" text-decoration="none" family="微软雅黑" text-anchor="middle" size="13">bool ManInput(); //人工输入并创建、</text><text id="ProcessOnText1022" fill="#000000" font-size="13" x="113.5" y="78.325" font-family="微软雅黑" font-weight="bold" font-style="normal" text-decoration="none" family="微软雅黑" text-anchor="middle" size="13">入库商品,成功返回1,否则0,下同</text><text id="ProcessOnText1023" fill="#000000" font-size="13" x="113.5" y="94.575" font-family="微软雅黑" font-weight="bold" font-style="normal" text-decoration="none" family="微软雅黑" text-anchor="middle" size="13">    bool BatchInput(); //批量导入</text><text id="ProcessOnText1024" fill="#000000" font-size="13" x="113.5" y="110.825" font-family="微软雅黑" font-weight="bold" font-style="normal" text-decoration="none" family="微软雅黑" text-anchor="middle" size="13">bool BatchOutput(string dir); //导出</text><text id="ProcessOnText1025" fill="#000000" font-size="13" x="113.5" y="127.075" font-family="微软雅黑" font-weight="bold" font-style="normal" text-decoration="none" family="微软雅黑" text-anchor="middle" size="13">数据</text><text id="ProcessOnText1026" fill="#000000" font-size="13" x="113.5" y="143.325" font-family="微软雅黑" font-weight="bold" font-style="normal" text-decoration="none" family="微软雅黑" text-anchor="middle" size="13">    bool OutStorage(); //出库操作</text><text id="ProcessOnText1027" fill="#000000" font-size="13" x="113.5" y="159.575" font-family="微软雅黑" font-weight="bold" font-style="normal" text-decoration="none" family="微软雅黑" text-anchor="middle" size="13">    bool SetDate(); //修改数据</text><text id="ProcessOnText1028" fill="#000000" font-size="13" x="113.5" y="175.825" font-family="微软雅黑" font-weight="bold" font-style="normal" text-decoration="none" family="微软雅黑" text-anchor="middle" size="13">Good* SearchChild(string pid); //搜</text><text id="ProcessOnText1029" fill="#000000" font-size="13" x="113.5" y="192.075" font-family="微软雅黑" font-weight="bold" font-style="normal" text-decoration="none" family="微软雅黑" text-anchor="middle" size="13">索查询部件</text><text id="ProcessOnText1030" fill="#000000" font-size="13" x="113.5" y="208.325" font-family="微软雅黑" font-weight="bold" font-style="normal" text-decoration="none" family="微软雅黑" text-anchor="middle" size="13">    void Search();</text><text id="ProcessOnText1031" fill="#000000" font-size="13" x="113.5" y="224.575" font-family="微软雅黑" font-weight="bold" font-style="normal" text-decoration="none" family="微软雅黑" text-anchor="middle" size="13">    long GetNumber(); //个数</text><text id="ProcessOnText1032" fill="#000000" font-size="13" x="113.5" y="240.825" font-family="微软雅黑" font-weight="bold" font-style="normal" text-decoration="none" family="微软雅黑" text-anchor="middle" size="13">    Good* GetLastPointer();</text><text id="ProcessOnText1033" fill="#000000" font-size="13" x="113.5" y="257.075" font-family="微软雅黑" font-weight="bold" font-style="normal" text-decoration="none" family="微软雅黑" text-anchor="middle" size="13">bool CheckAccount(bool a = 1);//用</text><text id="ProcessOnText1034" fill="#000000" font-size="13" x="113.5" y="273.325" font-family="微软雅黑" font-weight="bold" font-style="normal" text-decoration="none" family="微软雅黑" text-anchor="middle" size="13">户权限检查</text><text id="ProcessOnText1035" fill="#000000" font-size="13" x="113.5" y="289.575" font-family="微软雅黑" font-weight="bold" font-style="normal" text-decoration="none" family="微软雅黑" text-anchor="middle" size="13">    bool CheckID(string pid);</text><text id="ProcessOnText1036" fill="#000000" font-size="13" x="113.5" y="305.825" font-family="微软雅黑" font-weight="bold" font-style="normal" text-decoration="none" family="微软雅黑" text-anchor="middle" size="13">    void Statistics();//统计</text><text id="ProcessOnText1037" fill="#000000" font-size="13" x="113.5" y="322.075" font-family="微软雅黑" font-weight="bold" font-style="normal" text-decoration="none" family="微软雅黑" text-anchor="middle" size="13">void Log(string operators, bool end_</text><text id="ProcessOnText1038" fill="#000000" font-size="13" x="113.5" y="338.325" font-family="微软雅黑" font-weight="bold" font-style="normal" text-decoration="none" family="微软雅黑" text-anchor="middle" size="13">out,Good *p); //操作记录日志</text><text id="ProcessOnText1039" fill="#000000" font-size="13" x="113.5" y="354.575" font-family="微软雅黑" font-weight="bold" font-style="normal" text-decoration="none" family="微软雅黑" text-anchor="middle" size="13">    //bool Upload();</text><text id="ProcessOnText1040" fill="#000000" font-size="13" x="113.5" y="370.825" font-family="微软雅黑" font-weight="bold" font-style="normal" text-decoration="none" family="微软雅黑" text-anchor="middle" size="13">     QTime t;</text></g></g><g id="ProcessOnG1041" transform="matrix(1.0,0.0,0.0,1.0,40.0,1221.0)" opacity="1.0"><path id="ProcessOnPath1042" d="M0.0 4.0Q0.0 0.0 4.0 0.0L226.0 0.0Q230.0 0.0 230.0 4.0L230.0 216.0Q230.0 220.0 226.0 220.0L4.0 220.0Q0.0 220.0 0.0 216.0Z" stroke="#323232" stroke-width="2.0" stroke-dasharray="none" opacity="1.0" fill="#ffffff"/><path id="ProcessOnPath1043" d="M0.0 30.0L230.0 30.0M0.0 190.0L230.0 190.0" stroke="#323232" stroke-width="2.0" stroke-dasharray="none" opacity="1.0" fill="none"/><path id="ProcessOnPath1044" d="M0.0 0.0L230.0 0.0L230.0 220.0L0.0 220.0Z" stroke="none" stroke-width="0.0" stroke-dasharray="none" opacity="1.0" fill="none"/><g id="ProcessOnG1045" transform="matrix(1.0,0.0,0.0,1.0,10.0,6.875)"><text id="ProcessOnText1046" fill="#000000" font-size="13" x="104.0" y="13.325" font-family="微软雅黑" font-weight="bold" font-style="normal" text-decoration="none" family="微软雅黑" text-anchor="middle" size="13">商品</text></g><g id="ProcessOnG1047" transform="matrix(1.0,0.0,0.0,1.0,10.0,28.75)"><text id="ProcessOnText1048" fill="#000000" font-size="13" x="104.0" y="13.325" font-family="微软雅黑" font-weight="bold" font-style="normal" text-decoration="none" family="微软雅黑" text-anchor="middle" size="13">    string name;</text><text id="ProcessOnText1049" fill="#000000" font-size="13" x="104.0" y="29.575" font-family="微软雅黑" font-weight="bold" font-style="normal" text-decoration="none" family="微软雅黑" text-anchor="middle" size="13">    string id;</text><text id="ProcessOnText1050" fill="#000000" font-size="13" x="104.0" y="45.825" font-family="微软雅黑" font-weight="bold" font-style="normal" text-decoration="none" family="微软雅黑" text-anchor="middle" size="13">double cost, price; //分别是进价和</text><text id="ProcessOnText1051" fill="#000000" font-size="13" x="104.0" y="62.075" font-family="微软雅黑" font-weight="bold" font-style="normal" text-decoration="none" family="微软雅黑" text-anchor="middle" size="13">售价</text><text id="ProcessOnText1052" fill="#000000" font-size="13" x="104.0" y="78.325" font-family="微软雅黑" font-weight="bold" font-style="normal" text-decoration="none" family="微软雅黑" text-anchor="middle" size="13">    double number;</text><text id="ProcessOnText1053" fill="#000000" font-size="13" x="104.0" y="94.575" font-family="微软雅黑" font-weight="bold" font-style="normal" text-decoration="none" family="微软雅黑" text-anchor="middle" size="13">string measure_unit, category; //</text><text id="ProcessOnText1054" fill="#000000" font-size="13" x="104.0" y="110.825" font-family="微软雅黑" font-weight="bold" font-style="normal" text-decoration="none" family="微软雅黑" text-anchor="middle" size="13">计量单位和类别</text><text id="ProcessOnText1055" fill="#000000" font-size="13" x="104.0" y="127.075" font-family="微软雅黑" font-weight="bold" font-style="normal" text-decoration="none" family="微软雅黑" text-anchor="middle" size="13">string purchase_time, sell_time; //</text><text id="ProcessOnText1056" fill="#000000" font-size="13" x="104.0" y="143.325" font-family="微软雅黑" font-weight="bold" font-style="normal" text-decoration="none" family="微软雅黑" text-anchor="middle" size="13">入库、出库时间和保质期</text><text id="ProcessOnText1057" fill="#000000" font-size="13" x="104.0" y="159.575" font-family="微软雅黑" font-weight="bold" font-style="normal" text-decoration="none" family="微软雅黑" text-anchor="middle" size="13">    Good* next;</text></g><g id="ProcessOnG1058" transform="matrix(1.0,0.0,0.0,1.0,10.0,196.875)"><text id="ProcessOnText1059" fill="#000000" font-size="13" x="104.0" y="13.325" font-family="微软雅黑" font-weight="bold" font-style="normal" text-decoration="none" family="微软雅黑" text-anchor="middle" size="13"></text></g></g><g id="ProcessOnG1060" transform="matrix(1.0,0.0,0.0,1.0,314.0,794.0)" opacity="1.0"><path id="ProcessOnPath1061" d="M0.0 0.0L100.0 0.0L100.0 70.0L0.0 70.0Z" stroke="#323232" stroke-width="2.0" stroke-dasharray="none" opacity="1.0" fill="#ffffff"/><g id="ProcessOnG1062" transform="matrix(1.0,0.0,0.0,1.0,10.0,26.875)"><text id="ProcessOnText1063" fill="#000000" font-size="13" x="39.0" y="13.325" font-family="微软雅黑" font-weight="normal" font-style="normal" text-decoration="none" family="微软雅黑" text-anchor="middle" size="13">Good 2</text></g></g><g id="ProcessOnG1064" transform="matrix(1.0,0.0,0.0,1.0,160.0,794.0)" opacity="1.0"><path id="ProcessOnPath1065" d="M0.0 0.0L100.0 0.0L100.0 70.0L0.0 70.0Z" stroke="#323232" stroke-width="2.0" stroke-dasharray="none" opacity="1.0" fill="#ffffff"/><g id="ProcessOnG1066" transform="matrix(1.0,0.0,0.0,1.0,10.0,26.875)"><text id="ProcessOnText1067" fill="#000000" font-size="13" x="39.0" y="13.325" font-family="微软雅黑" font-weight="normal" font-style="normal" text-decoration="none" family="微软雅黑" text-anchor="middle" size="13">Good 1</text></g></g><g id="ProcessOnG1068" transform="matrix(1.0,0.0,0.0,1.0,490.0,794.0)" opacity="1.0"><path id="ProcessOnPath1069" d="M0.0 0.0L100.0 0.0L100.0 70.0L0.0 70.0Z" stroke="#323232" stroke-width="2.0" stroke-dasharray="none" opacity="1.0" fill="#ffffff"/><g id="ProcessOnG1070" transform="matrix(1.0,0.0,0.0,1.0,10.0,26.875)"><text id="ProcessOnText1071" fill="#000000" font-size="13" x="39.0" y="13.325" font-family="微软雅黑" font-weight="normal" font-style="normal" text-decoration="none" family="微软雅黑" text-anchor="middle" size="13">Good 3</text></g></g><g id="ProcessOnG1072" transform="matrix(1.0,0.0,0.0,1.0,652.0,794.0)" opacity="1.0"><path id="ProcessOnPath1073" d="M0.0 0.0L100.0 0.0L100.0 70.0L0.0 70.0Z" stroke="#323232" stroke-width="2.0" stroke-dasharray="none" opacity="1.0" fill="#ffffff"/><g id="ProcessOnG1074" transform="matrix(1.0,0.0,0.0,1.0,10.0,26.875)"><text id="ProcessOnText1075" fill="#000000" font-size="13" x="39.0" y="13.325" font-family="微软雅黑" font-weight="normal" font-style="normal" text-decoration="none" family="微软雅黑" text-anchor="middle" size="13">Good 4</text></g></g><g id="ProcessOnG1076" transform="matrix(1.0,0.0,0.0,1.0,57.0,809.0)" opacity="1.0"><path id="ProcessOnPath1077" d="M0.0 20.0C0.0 -6.666666666666667 40.0 -6.666666666666667 40.0 20.0C40.0 46.666666666666664 0.0 46.666666666666664 0.0 20.0Z" stroke="none" stroke-width="0.0" stroke-dasharray="none" opacity="1.0" fill="#323232"/><g id="ProcessOnG1078" transform="matrix(1.0,0.0,0.0,1.0,-20.0,46.875)"><text id="ProcessOnText1079" fill="#000000" font-size="13" x="39.0" y="13.325" font-family="微软雅黑" font-weight="normal" font-style="normal" text-decoration="none" family="微软雅黑" text-anchor="middle" size="13">head</text></g></g><g id="ProcessOnG1080"><path id="ProcessOnPath1081" d="M97.0 829.0L128.5 829.0L128.5 829.0L144.7639320225002 829.0" stroke="#323232" stroke-width="2.0" stroke-dasharray="none" fill="none" marker-end="url(#ProcessOnMarker1082)"/></g><g id="ProcessOnG1084"><path id="ProcessOnPath1085" d="M260.0 829.0L287.0 829.0L287.0 829.0L298.7639320225002 829.0" stroke="#323232" stroke-width="2.0" stroke-dasharray="none" fill="none" marker-end="url(#ProcessOnMarker1086)"/></g><g id="ProcessOnG1088"><path id="ProcessOnPath1089" d="M414.0 829.0L452.0 829.0L452.0 829.0L474.7639320225002 829.0" stroke="#323232" stroke-width="2.0" stroke-dasharray="none" fill="none" marker-end="url(#ProcessOnMarker1090)"/></g><g id="ProcessOnG1092"><path id="ProcessOnPath1093" d="M590.0 829.0L621.0 829.0L621.0 829.0L636.7639320225002 829.0" stroke="#323232" stroke-width="2.0" stroke-dasharray="none" fill="none" marker-end="url(#ProcessOnMarker1094)"/></g><g id="ProcessOnG1096"><path id="ProcessOnPath1097" d="M752.0 829.0L810.0 829.0L810.0 829.0L852.7639320225002 829.0" stroke="#323232" stroke-width="2.0" stroke-dasharray="none" fill="none" marker-end="url(#ProcessOnMarker1098)"/><g id="ProcessOnG1100" transform="matrix(1.0,0.0,0.0,1.0,802.3819660112501,820.875)"><path id="ProcessOnPath1101" d="M0 0H22.0V16.25H0Z" fill="#fff" transform="matrix(1.0,0.0,0.0,1.0,-11.0,0.0)"/><text id="ProcessOnText1102" fill="#000000" font-size="13" x="0.0" y="13.325" font-family="微软雅黑" font-weight="normal" font-style="normal" text-decoration="none" family="微软雅黑" text-anchor="middle" size="13">... ...</text></g></g><g id="ProcessOnG1103" transform="matrix(1.0,0.0,0.0,1.0,868.0,794.0)" opacity="1.0"><path id="ProcessOnPath1104" d="M0.0 0.0L100.0 0.0L100.0 70.0L0.0 70.0Z" stroke="#323232" stroke-width="2.0" stroke-dasharray="none" opacity="1.0" fill="#ffffff"/><g id="ProcessOnG1105" transform="matrix(1.0,0.0,0.0,1.0,10.0,26.875)"><text id="ProcessOnText1106" fill="#000000" font-size="13" x="39.0" y="13.325" font-family="微软雅黑" font-weight="normal" font-style="normal" text-decoration="none" family="微软雅黑" text-anchor="middle" size="13">Good n</text></g></g><g id="ProcessOnG1107" transform="matrix(1.0,0.0,0.0,1.0,1035.0,809.0)" opacity="1.0"><path id="ProcessOnPath1108" d="M0.0 20.0C0.0 -6.666666666666667 40.0 -6.666666666666667 40.0 20.0C40.0 46.666666666666664 0.0 46.666666666666664 0.0 20.0Z" stroke="#323232" stroke-width="4.0" stroke-dasharray="none" opacity="1.0" fill="#ffffff"/><path id="ProcessOnPath1109" d="M10.0 20.0C10.0 6.666666666666666 30.0 6.666666666666666 30.0 20.0C30.0 33.333333333333336 10.0 33.333333333333336 10.0 20.0Z" stroke="none" stroke-width="0.0" stroke-dasharray="none" opacity="1.0" fill="#323232"/><path id="ProcessOnPath1110" d="M0.0 20.0C0.0 -6.666666666666667 40.0 -6.666666666666667 40.0 20.0C40.0 46.666666666666664 0.0 46.666666666666664 0.0 20.0Z" stroke="none" stroke-width="0.0" stroke-dasharray="none" opacity="1.0" fill="none"/><g id="ProcessOnG1111" transform="matrix(1.0,0.0,0.0,1.0,-20.0,46.875)"><text id="ProcessOnText1112" fill="#000000" font-size="13" x="39.0" y="13.325" font-family="微软雅黑" font-weight="normal" font-style="normal" text-decoration="none" family="微软雅黑" text-anchor="middle" size="13">Null</text></g></g><g id="ProcessOnG1113"><path id="ProcessOnPath1114" d="M968.0 829.0L1001.5 829.0L1001.5 829.0L1019.7639320225002 829.0" stroke="#323232" stroke-width="2.0" stroke-dasharray="none" fill="none" marker-end="url(#ProcessOnMarker1115)"/></g><g id="ProcessOnG1117"><path id="ProcessOnPath1118" d="M570.0 1192.0L1105.0 1192.0L1105.0 829.0L1090.2360679774997 829.0" stroke="#323232" stroke-width="2.0" stroke-dasharray="none" fill="none" marker-end="url(#ProcessOnMarker1119)"/></g><g id="ProcessOnG1121"><path id="ProcessOnPath1122" d="M570.0 1192.0L600.0 1192.0L600.0 893.5L27.0 893.5L27.0 829.0L41.763932022500214 829.0" stroke="#323232" stroke-width="2.0" stroke-dasharray="none" fill="none" marker-end="url(#ProcessOnMarker1123)"/></g><g id="ProcessOnG1125"><path id="ProcessOnPath1126" d="M570.0 1192.0L600.0 1192.0L600.0 894.0L210.0 894.0L210.0 879.2360679774998" stroke="#323232" stroke-width="2.0" stroke-dasharray="none" fill="none" marker-end="url(#ProcessOnMarker1127)"/></g><g id="ProcessOnG1129"><path id="ProcessOnPath1130" d="M570.0 1192.0L600.0 1192.0L600.0 894.0L364.0 894.0L364.0 879.2360679774998" stroke="#323232" stroke-width="2.0" stroke-dasharray="none" fill="none" marker-end="url(#ProcessOnMarker1131)"/></g><g id="ProcessOnG1133"><path id="ProcessOnPath1134" d="M570.0 1192.0L600.0 1192.0L600.0 894.0L540.0 894.0L540.0 879.2360679774998" stroke="#323232" stroke-width="2.0" stroke-dasharray="none" fill="none" marker-end="url(#ProcessOnMarker1135)"/></g><g id="ProcessOnG1137"><path id="ProcessOnPath1138" d="M570.0 1192.0L702.0 1192.0L702.0 879.2360679774998" stroke="#323232" stroke-width="2.0" stroke-dasharray="none" fill="none" marker-end="url(#ProcessOnMarker1139)"/></g><g id="ProcessOnG1141"><path id="ProcessOnPath1142" d="M570.0 1192.0L918.0 1192.0L918.0 879.2360679774998" stroke="#323232" stroke-width="2.0" stroke-dasharray="none" fill="none" marker-end="url(#ProcessOnMarker1143)"/></g><g id="ProcessOnG1145" transform="matrix(1.0,0.0,0.0,1.0,133.0,590.0)" opacity="1.0"><path id="ProcessOnPath1146" d="M23.200000000000003 0.0L232.0 0.0L232.0 111.0L23.200000000000003 111.0L23.200000000000003 88.80000000000001L0.0 88.80000000000001L0.0 66.6L23.200000000000003 66.6L23.200000000000003 44.400000000000006L0.0 44.400000000000006L0.0 22.200000000000003L23.200000000000003 22.200000000000003L23.200000000000003 0.0Z" stroke="#323232" stroke-width="2.0" stroke-dasharray="none" opacity="1.0" fill="#ffffff"/><path id="ProcessOnPath1147" d="M23.200000000000003 88.80000000000001L46.400000000000006 88.80000000000001L46.400000000000006 66.6L23.200000000000003 66.6M23.200000000000003 44.400000000000006L46.400000000000006 44.400000000000006L46.400000000000006 22.200000000000003L23.200000000000003 22.200000000000003" stroke="#323232" stroke-width="2.0" stroke-dasharray="none" opacity="1.0" fill="none"/><path id="ProcessOnPath1148" d="M23.200000000000003 0.0L232.0 0.0L232.0 111.0L23.200000000000003 111.0L23.200000000000003 88.80000000000001L0.0 88.80000000000001L0.0 66.6L23.200000000000003 66.6L23.200000000000003 44.400000000000006L0.0 44.400000000000006L0.0 22.200000000000003L23.200000000000003 22.200000000000003L23.200000000000003 0.0Z" stroke="none" stroke-width="0.0" stroke-dasharray="none" opacity="1.0" fill="none"/><g id="ProcessOnG1149" transform="matrix(1.0,0.0,0.0,1.0,34.0,47.375)"><text id="ProcessOnText1150" fill="#000000" font-size="13" x="95.5" y="13.325" font-family="微软雅黑" font-weight="normal" font-style="normal" text-decoration="underline" family="微软雅黑" text-anchor="middle" size="13">文件操作</text></g></g><g id="ProcessOnG1151"><path id="ProcessOnPath1152" d="M270.0 1331.0L295.5 1331.0L295.5 1476.0L445.5 1476.0L445.5 1461.2360679774997" stroke="#323232" stroke-width="2.0" stroke-dasharray="none" fill="none" marker-end="url(#ProcessOnMarker1153)"/></g><g id="ProcessOnG1155"><path id="ProcessOnPath1156" d="M321.0 1192.0L103.71892336110994 1192.0L103.71892336110994 630.7321452147779L118.48285538361016 630.7321452147779" stroke="#323232" stroke-width="2.0" stroke-dasharray="none" fill="none" marker-end="url(#ProcessOnMarker1157)"/></g><g id="ProcessOnG1159"><path id="ProcessOnPath1160" d="M77.0 809.0L77.0 667.7L117.76393202250021 667.7" stroke="#323232" stroke-width="2.0" stroke-dasharray="none" fill="none" marker-end="url(#ProcessOnMarker1161)"/></g><g id="ProcessOnG1163" transform="matrix(1.0,0.0,0.0,1.0,133.0,415.0)" opacity="1.0"><path id="ProcessOnPath1164" d="M23.200000000000003 0.0L232.0 0.0L232.0 119.0L23.200000000000003 119.0L23.200000000000003 95.2L0.0 95.2L0.0 71.39999999999999L23.200000000000003 71.39999999999999L23.200000000000003 47.6L0.0 47.6L0.0 23.8L23.200000000000003 23.8L23.200000000000003 0.0Z" stroke="#323232" stroke-width="2.0" stroke-dasharray="none" opacity="1.0" fill="#ffffff"/><path id="ProcessOnPath1165" d="M23.200000000000003 95.2L46.400000000000006 95.2L46.400000000000006 71.39999999999999L23.200000000000003 71.39999999999999M23.200000000000003 47.6L46.400000000000006 47.6L46.400000000000006 23.8L23.200000000000003 23.8" stroke="#323232" stroke-width="2.0" stroke-dasharray="none" opacity="1.0" fill="none"/><path id="ProcessOnPath1166" d="M23.200000000000003 0.0L232.0 0.0L232.0 119.0L23.200000000000003 119.0L23.200000000000003 95.2L0.0 95.2L0.0 71.39999999999999L23.200000000000003 71.39999999999999L23.200000000000003 47.6L0.0 47.6L0.0 23.8L23.200000000000003 23.8L23.200000000000003 0.0Z" stroke="none" stroke-width="0.0" stroke-dasharray="none" opacity="1.0" fill="none"/><g id="ProcessOnG1167" transform="matrix(1.0,0.0,0.0,1.0,34.0,51.375)"><text id="ProcessOnText1168" fill="#000000" font-size="13" x="95.5" y="13.325" font-family="微软雅黑" font-weight="normal" font-style="normal" text-decoration="underline" family="微软雅黑" text-anchor="middle" size="13">基础I/O</text></g></g><g id="ProcessOnG1169"><path id="ProcessOnPath1170" d="M77.0 809.0L77.0 498.3L117.76393202250021 498.3" stroke="#323232" stroke-width="2.0" stroke-dasharray="none" fill="none" marker-end="url(#ProcessOnMarker1171)"/></g><g id="ProcessOnG1173"><path id="ProcessOnPath1174" d="M321.0 1192.0L103.0 1192.0L103.0 450.7L117.76393202250021 450.7" stroke="#323232" stroke-width="2.0" stroke-dasharray="none" fill="none" marker-end="url(#ProcessOnMarker1175)"/></g><g id="ProcessOnG1177" transform="matrix(1.0,0.0,0.0,1.0,450.0,423.0)" opacity="1.0"><path id="ProcessOnPath1178" d="M0.0 30.0L240.0 30.0L240.0 270.0L0.0 270.0L0.0 30.0Z" stroke="#323232" stroke-width="2.0" stroke-dasharray="none" opacity="1.0" fill="#ffffff"/><path id="ProcessOnPath1179" d="M0.0 30.0L30.0 0.0L270.0 0.0L270.0 240.0L240.0 270.0L240.0 30.0L0.0 30.0ZM240.0 30.0L270.0 0.0" stroke="#323232" stroke-width="2.0" stroke-dasharray="none" opacity="1.0" fill="#e6e6e6"/><path id="ProcessOnPath1180" d="M0.0 0.0L270.0 0.0L270.0 270.0L0.0 270.0Z" stroke="none" stroke-width="0.0" stroke-dasharray="none" opacity="1.0" fill="none"/><g id="ProcessOnG1181" transform="matrix(1.0,0.0,0.0,1.0,10.0,141.875)"><text id="ProcessOnText1182" fill="#000000" font-size="13" x="109.0" y="13.325" font-family="微软雅黑" font-weight="normal" font-style="normal" text-decoration="underline" family="微软雅黑" text-anchor="middle" size="13">界面UI</text></g></g><g id="ProcessOnG1183"><path id="ProcessOnPath1184" d="M365.0 474.5L407.5 474.5L407.5 558.0L434.7639320225002 558.0" stroke="#323232" stroke-width="2.0" stroke-dasharray="none" fill="none" marker-end="url(#ProcessOnMarker1185)"/></g><g id="ProcessOnG1187"><path id="ProcessOnPath1188" d="M365.0 645.5L407.5 645.5L407.5 558.0L434.7639320225002 558.0" stroke="#323232" stroke-width="2.0" stroke-dasharray="none" fill="none" marker-end="url(#ProcessOnMarker1189)"/></g><g id="ProcessOnG1191" transform="matrix(1.0,0.0,0.0,1.0,923.0,539.0)" opacity="1.0"><path id="ProcessOnPath1192" d="M23.333333333333332 12.5C23.333333333333332 -4.166666666666666 46.666666666666664 -4.166666666666666 46.666666666666664 12.5C46.666666666666664 29.166666666666668 23.333333333333332 29.166666666666668 23.333333333333332 12.5M35.0 25.0L35.0 75.0M35.0 75.0L5.833333333333333 100.0M35.0 75.0L64.16666666666666 100.0M0.0 50.0L70.0 50.0" stroke="#323232" stroke-width="2.0" stroke-dasharray="none" opacity="1.0" fill="#ffffff"/><path id="ProcessOnPath1193" d="M0.0 0.0L70.0 0.0L70.0 100.0L0.0 100.0Z" stroke="none" stroke-width="0.0" stroke-dasharray="none" opacity="1.0" fill="none"/><g id="ProcessOnG1194" transform="matrix(1.0,0.0,0.0,1.0,-20.0,106.875)"><text id="ProcessOnText1195" fill="#000000" font-size="13" x="54.0" y="13.325" font-family="微软雅黑" font-weight="normal" font-style="normal" text-decoration="none" family="微软雅黑" text-anchor="middle" size="13">游客</text></g></g><g id="ProcessOnG1196" transform="matrix(1.0,0.0,0.0,1.0,923.0,323.0)" opacity="1.0"><path id="ProcessOnPath1197" d="M23.333333333333332 12.5C23.333333333333332 -4.166666666666666 46.666666666666664 -4.166666666666666 46.666666666666664 12.5C46.666666666666664 29.166666666666668 23.333333333333332 29.166666666666668 23.333333333333332 12.5M35.0 25.0L35.0 75.0M35.0 75.0L5.833333333333333 100.0M35.0 75.0L64.16666666666666 100.0M0.0 50.0L70.0 50.0" stroke="#323232" stroke-width="2.0" stroke-dasharray="none" opacity="1.0" fill="#ffffff"/><path id="ProcessOnPath1198" d="M0.0 0.0L70.0 0.0L70.0 100.0L0.0 100.0Z" stroke="none" stroke-width="0.0" stroke-dasharray="none" opacity="1.0" fill="none"/><g id="ProcessOnG1199" transform="matrix(1.0,0.0,0.0,1.0,-20.0,106.875)"><text id="ProcessOnText1200" fill="#000000" font-size="13" x="54.0" y="13.325" font-family="微软雅黑" font-weight="normal" font-style="normal" text-decoration="none" family="微软雅黑" text-anchor="middle" size="13">普通管理员</text></g></g><g id="ProcessOnG1201" transform="matrix(1.0,0.0,0.0,1.0,550.0,226.0)" opacity="1.0"><path id="ProcessOnPath1202" d="M23.333333333333332 12.5C23.333333333333332 -4.166666666666666 46.666666666666664 -4.166666666666666 46.666666666666664 12.5C46.666666666666664 29.166666666666668 23.333333333333332 29.166666666666668 23.333333333333332 12.5M35.0 25.0L35.0 75.0M35.0 75.0L5.833333333333333 100.0M35.0 75.0L64.16666666666666 100.0M0.0 50.0L70.0 50.0" stroke="#323232" stroke-width="2.0" stroke-dasharray="none" opacity="1.0" fill="#ffffff"/><path id="ProcessOnPath1203" d="M0.0 0.0L70.0 0.0L70.0 100.0L0.0 100.0Z" stroke="none" stroke-width="0.0" stroke-dasharray="none" opacity="1.0" fill="none"/></g><g id="ProcessOnG1204"><path id="ProcessOnPath1205" d="M585.0 326.0L585.0 374.5L585.0 374.5L585.0 407.7639320225002" stroke="#323232" stroke-width="2.0" stroke-dasharray="none" fill="none" marker-end="url(#ProcessOnMarker1206)"/></g><g id="ProcessOnG1208"><path id="ProcessOnPath1209" d="M923.0 373.0L821.5 373.0L821.5 558.0L735.2360679774998 558.0" stroke="#323232" stroke-width="2.0" stroke-dasharray="none" fill="none" marker-end="url(#ProcessOnMarker1210)"/></g><g id="ProcessOnG1212"><path id="ProcessOnPath1213" d="M923.0 589.0L893.0 589.0L893.0 723.0L585.0 723.0L585.0 708.2360679774998" stroke="#323232" stroke-width="2.0" stroke-dasharray="none" fill="none" marker-end="url(#ProcessOnMarker1214)"/></g><g id="ProcessOnG1216"><path id="ProcessOnPath1217" d="M550.0 276.0L249.0 276.0L249.0 574.7639320225002" stroke="#323232" stroke-width="2.0" stroke-dasharray="none" fill="none" marker-end="url(#ProcessOnMarker1218)"/></g></g></g></svg>